<svg width="304" height="305" viewBox="0 0 304 305" fill="none" xmlns="http://www.w3.org/2000/svg">
<path d="M299.5 3.5H3.5V66.5H299.5V3.5Z" stroke="#FFBBBB" stroke-width="7"/>
<path d="M299.5 38.5H3.5V101.5H299.5V38.5Z" stroke="#FFBBBB" stroke-width="7"/>
<path d="M299.5 105.5H3.5V168.5H299.5V105.5Z" stroke="#FFBBBB" stroke-width="7"/>
<path d="M299.5 137.5H3.5V200.5H299.5V137.5Z" stroke="#FFBBBB" stroke-width="7"/>
<path d="M299.5 204.5H3.5V267.5H299.5V204.5Z" stroke="#FFBBBB" stroke-width="7"/>
<path d="M299.5 236.5H3.5V299.5H299.5V236.5Z" stroke="#FFBBBB" stroke-width="7"/>
<path d="M3.96746 3.50555L3.52386 300.075L66.5238 300.169L66.9674 3.59979L3.96746 3.50555Z" stroke="#FFBBBB" stroke-width="7"/>
<path d="M38.9674 3.55728L38.5238 300.127L101.524 300.221L101.967 3.65151L38.9674 3.55728Z" stroke="#FFBBBB" stroke-width="7"/>
<path d="M105.968 3.65738L105.524 300.227L168.524 300.321L168.968 3.75161L105.968 3.65738Z" stroke="#FFBBBB" stroke-width="7"/>
<path d="M137.968 3.70523L137.524 300.275L200.524 300.369L200.968 3.79946L137.968 3.70523Z" stroke="#FFBBBB" stroke-width="7"/>
<path d="M204.968 3.80533L204.524 300.375L267.524 300.469L267.968 3.89956L204.968 3.80533Z" stroke="#FFBBBB" stroke-width="7"/>
<path d="M236.968 3.85318L236.524 300.423L299.524 300.517L299.968 3.94741L236.968 3.85318Z" stroke="#FFBBBB" stroke-width="7"/>
</svg>
